<?xml version="1.0" encoding="utf-8"?>
<!-- Generator: Adobe Illustrator 24.1.2, SVG Export Plug-In . SVG Version: 6.00 Build 0)  -->
<svg version="1.1" id="Calque_1" xmlns="http://www.w3.org/2000/svg" xmlns:xlink="http://www.w3.org/1999/xlink" x="0px" y="0px"
	 viewBox="0 0 300 480.1" style="enable-background:new 0 0 300 480.1;" xml:space="preserve">
<style type="text/css">
	.st0{opacity:0.7;fill-rule:evenodd;clip-rule:evenodd;fill:#F44336;enable-background:new    ;}
	.st1{opacity:0.7;fill-rule:evenodd;clip-rule:evenodd;fill:#2196F3;enable-background:new    ;}
	.st2{fill-rule:evenodd;clip-rule:evenodd;}
	.st3{opacity:0.7;fill-rule:evenodd;clip-rule:evenodd;fill:#424242;enable-background:new    ;}
</style>
<path id="Polygone_1" class="st0" d="M299.3,227.3l-95.6,54.5l-96.2-55.5l-0.6-110.1l95.6-54.6l96.2,55.5L299.3,227.3z"/>
<path id="Polygone_1-2" class="st1" d="M193.2,166.6l-95.6,54.5L1.4,165.6L0.8,55.5L96.5,1l96.2,55.5L193.2,166.6z"/>
<path id="NOVA" class="st2" d="M86.4,405.5l-15.5-27.4v14.4l15.5,27.3h7.6v-46.1h-7.6V405.5L86.4,405.5z M68.3,419.8v-46.1h-7.6
	v46.1H68.3z M105.9,406.5c0.8,2.6,2.1,5.1,3.8,7.3c1.5,1.9,3.5,3.5,5.7,4.6c2.2,1.1,4.7,1.7,7.1,1.8V414c-1.4-0.1-2.7-0.6-3.9-1.3
	c-1.3-0.8-2.5-1.9-3.3-3.2c-1-1.6-1.8-3.4-2.2-5.3c-1.2-5-1.2-10.2,0-15.2c0.4-1.9,1.2-3.6,2.2-5.3c0.8-1.3,1.9-2.4,3.3-3.1
	c1.2-0.7,2.6-1.2,4-1.3V373c-2.5,0.1-4.9,0.8-7.2,1.8c-2.2,1.1-4.2,2.6-5.7,4.6c-1.7,2.2-3,4.6-3.8,7.3
	C104.1,393.2,104.1,400,105.9,406.5L105.9,406.5z M125,379.2c1.4,0.1,2.7,0.6,3.9,1.3c1.3,0.8,2.4,1.9,3.3,3.2
	c1,1.6,1.8,3.4,2.2,5.3c1.2,5,1.2,10.2,0,15.2c-0.4,1.9-1.2,3.6-2.2,5.3c-0.8,1.3-1.9,2.4-3.3,3.2c-1.2,0.7-2.6,1.2-4,1.3v6.2
	c2.5-0.1,4.9-0.8,7.1-1.8c2.2-1.1,4.1-2.6,5.7-4.6c1.7-2.2,3-4.6,3.8-7.3c1.8-6.5,1.8-13.3,0-19.7c-0.8-2.6-2.1-5.1-3.8-7.3
	c-1.5-1.9-3.5-3.5-5.7-4.6c-2.2-1.1-4.6-1.7-7.1-1.8L125,379.2L125,379.2z M165.9,420.1h3.9v-10.2l-9.7-36.2h-8.6L165.9,420.1z
	 M172.4,407.9v12.2h3.3l15-46.4h-8.5L172.4,407.9z M221.9,373.8h-7.5l-16.2,46.1h7.8l12.1-34.6l12,34.6h7.8L221.9,373.8z
	 M213.9,405.2l-1.8,5.1h12l-1.8-5.1H213.9L213.9,405.2z"/>
<path id="Polygone_1-3" class="st3" d="M194.2,287.4l-95.6,54.5L2.4,286.4L1.8,176.3l95.6-54.6l96.2,55.5L194.2,287.4z"/>
<g>
	<g>
		<path d="M98.4,474.6c-1.2-0.7-2.2-1.7-2.9-3.1s-1-2.9-1-4.6v-6.4c0-1.7,0.3-3.3,1-4.6c0.7-1.3,1.6-2.3,2.9-3.1
			c1.2-0.7,2.7-1.1,4.3-1.1c1.3,0,2.6,0.3,3.7,0.9c1.1,0.6,2.1,1.4,2.8,2.4c0.8,1.1,1.3,2.3,1.5,3.7h-3.4c-0.2-0.7-0.5-1.4-1-2
			c-0.5-0.6-1-1-1.7-1.3s-1.3-0.5-2-0.5c-1,0-1.8,0.2-2.5,0.7c-0.7,0.5-1.3,1.1-1.7,1.9c-0.4,0.8-0.6,1.8-0.6,2.9v6.4
			c0,1.1,0.2,2.1,0.6,2.9s1,1.5,1.7,1.9c0.7,0.5,1.6,0.7,2.5,0.7c0.7,0,1.4-0.1,2-0.4c0.6-0.3,1.2-0.7,1.7-1.3c0.5-0.6,0.8-1.2,1-2
			h3.4c-0.3,1.4-0.8,2.6-1.5,3.7s-1.7,1.9-2.8,2.4c-1.1,0.6-2.4,0.9-3.7,0.9C101.1,475.7,99.7,475.3,98.4,474.6z"/>
		<path d="M117.8,474.8c-1-0.6-1.8-1.4-2.4-2.5c-0.5-1.1-0.8-2.4-0.8-3.9v-2.7c0-1.5,0.3-2.8,0.8-3.9c0.5-1.1,1.3-1.9,2.4-2.5
			c1-0.6,2.3-0.8,3.7-0.8s2.7,0.3,3.7,0.8c1,0.6,1.8,1.4,2.4,2.5c0.5,1.1,0.8,2.4,0.8,3.9v2.8c0,1.5-0.3,2.8-0.8,3.9
			c-0.5,1.1-1.3,1.9-2.4,2.5s-2.3,0.9-3.7,0.9S118.9,475.4,117.8,474.8z M124.2,471.5c0.6-0.7,0.9-1.7,0.9-3v-2.8
			c0-1.3-0.3-2.3-0.9-3c-0.6-0.7-1.5-1.1-2.7-1.1s-2,0.4-2.7,1.1c-0.6,0.7-0.9,1.7-0.9,3v2.8c0,1.3,0.3,2.3,0.9,3
			c0.6,0.7,1.5,1.1,2.7,1.1S123.6,472.2,124.2,471.5z"/>
		<path d="M133.1,458.7h3.3v16.7h-3.3V458.7z M143.3,465.3c0-1.2-0.3-2.1-0.9-2.7s-1.5-1-2.6-1c-1.1,0-1.9,0.3-2.5,0.9
			s-0.9,1.4-0.9,2.4l-0.3-3.2c0.5-1,1.2-1.8,2-2.3s1.8-0.8,2.8-0.8c1.8,0,3.2,0.6,4.2,1.8c1,1.2,1.5,2.9,1.5,5v10.2h-3.3V465.3z"/>
		<path d="M161.4,458.7h3.4l-6.3,16.7h-2.5l-6.3-16.7h3.4l4.1,11.9L161.4,458.7z"/>
		<path d="M170.9,474.8c-1.1-0.6-1.9-1.4-2.5-2.6c-0.6-1.1-0.9-2.5-0.9-4.1v-1.9c0-1.7,0.3-3.1,0.8-4.2c0.6-1.2,1.4-2.1,2.4-2.7
			c1.1-0.6,2.3-0.9,3.8-0.9c1.4,0,2.6,0.3,3.6,1s1.7,1.7,2.3,3c0.5,1.3,0.8,2.9,0.8,4.8v1.1H170v-2.6h8.2c-0.1-1.4-0.4-2.4-1.1-3.2
			c-0.6-0.8-1.4-1.1-2.4-1.1c-1.2,0-2.2,0.4-2.9,1.2c-0.7,0.8-1,2-1,3.5v2.1c0,1.4,0.4,2.4,1.1,3.2s1.8,1.1,3.1,1.1
			c0.7,0,1.3-0.1,2-0.4s1.2-0.6,1.8-1.1l2.2,2.2c-0.8,0.8-1.8,1.4-2.8,1.8c-1,0.4-2.1,0.7-3.1,0.7
			C173.4,475.7,172,475.4,170.9,474.8z"/>
		<path d="M185.7,458.7h3.3v16.7h-3.3V458.7z M193.9,461.9c-0.4-0.2-1-0.3-1.5-0.3c-1,0-1.9,0.3-2.4,0.9c-0.6,0.6-0.9,1.4-0.9,2.4
			l-0.3-3.2c0.5-1,1.2-1.8,2-2.3c0.8-0.6,1.7-0.8,2.7-0.8c0.8,0,1.5,0.1,2.1,0.3c0.6,0.2,1.2,0.5,1.6,1l-2.1,2.9
			C194.7,462.3,194.3,462.1,193.9,461.9z"/>
		<path d="M198.5,458.7h7.5v3h-7.5V458.7z M201.2,474.4c-0.6-0.7-0.9-1.9-0.9-3.3v-17.2h3.3v17.3c0,0.4,0.1,0.7,0.2,0.9
			c0.2,0.2,0.4,0.3,0.7,0.3h1.6v3.1h-1.9C202.8,475.5,201.8,475.1,201.2,474.4z"/>
	</g>
</g>
</svg>
